<?xml version="1.0" encoding="utf-8"?>
<!-- Generator: Adobe Illustrator 27.5.0, SVG Export Plug-In . SVG Version: 6.00 Build 0)  -->
<svg version="1.1" xmlns="http://www.w3.org/2000/svg" xmlns:xlink="http://www.w3.org/1999/xlink" x="0px" y="0px"
	 viewBox="0 0 750 500" style="enable-background:new 0 0 750 500;" xml:space="preserve">
<g id="BACKGROUND">
	<rect style="fill:#679FC1;" width="750" height="500"/>
</g>
<g id="OBJECTS">
	<g>
		<ellipse style="opacity:0.2;fill:#383838;" cx="149.57" cy="447.111" rx="89.622" ry="7.448"/>
		<g>
			<g>
				<g>
					<path style="fill:#F4CA60;" d="M98.801,430.84c0,0-4.099,15.988-3.075,16.603c1.025,0.615,49.398,1.23,51.242,0
						c1.845-1.23,0.245-9.019-25.703-16.603C121.266,430.84,105.975,425.921,98.801,430.84z"/>
					<g>
						<defs>
							<path id="SVGID_1_" d="M98.801,430.84c0,0-4.099,15.988-3.075,16.603c1.025,0.615,49.398,1.23,51.242,0
								c1.845-1.23,0.245-9.019-25.703-16.603C121.266,430.84,105.975,425.921,98.801,430.84z"/>
						</defs>
						<clipPath id="SVGID_00000057122192484536572780000005065224908529362827_">
							<use xlink:href="#SVGID_1_"  style="overflow:visible;"/>
						</clipPath>
						<path style="clip-path:url(#SVGID_00000057122192484536572780000005065224908529362827_);fill:#FFFFFF;" d="M139.941,436.128
							c-0.215,0-8.809-0.072-12.175,6.302h-22.487c0,0-4.011-8.164-12.604-4.798c-8.594,3.366-3.724,15.97-3.724,15.97l62.234-4.225
							l-4.225-12.819L139.941,436.128z"/>
					</g>
				</g>
				<path style="fill:#735546;" d="M101.361,414.53l-1.078,17.197c0,0,6.134,3.544,14.129-0.155l0.672-17.041H101.361z"/>
			</g>
			<g>
				<g>
					<path style="fill:#F4CA60;" d="M156.227,430.84c0,0-4.099,15.988-3.075,16.603c1.025,0.615,49.398,1.23,51.243,0
						c1.845-1.23,0.245-9.019-25.704-16.603C178.691,430.84,163.401,425.921,156.227,430.84z"/>
					<g>
						<defs>
							<path id="SVGID_00000150809850544885376830000004342884582354173324_" d="M156.227,430.84c0,0-4.099,15.988-3.075,16.603
								c1.025,0.615,49.398,1.23,51.243,0c1.845-1.23,0.245-9.019-25.704-16.603C178.691,430.84,163.401,425.921,156.227,430.84z"/>
						</defs>
						<clipPath id="SVGID_00000131357150125711276520000007388615102849669821_">
							<use xlink:href="#SVGID_00000150809850544885376830000004342884582354173324_"  style="overflow:visible;"/>
						</clipPath>
						<path style="clip-path:url(#SVGID_00000131357150125711276520000007388615102849669821_);fill:#FFFFFF;" d="M197.367,436.128
							c-0.215,0-8.809-0.072-12.175,6.302h-22.487c0,0-4.01-8.164-12.604-4.798c-8.594,3.366-3.724,15.97-3.724,15.97l62.234-4.225
							l-4.225-12.819L197.367,436.128z"/>
					</g>
				</g>
				<path style="fill:#735546;" d="M157.406,415.68l1.363,15.603c0,0,7.574,2.858,13.323-0.473l-1.12-17.208L157.406,415.68z"/>
			</g>
			<g>
				<path style="fill:#8CB1CC;" d="M153.621,409.081c0,0,0.396,7.401,2.339,8.063c1.943,0.662,3.496,0.056,5.964,0.095
					c2.468,0.039,7.303-0.064,9.47-0.48c2.167-0.416,3.206-1.121,2.086-8.263C172.36,401.354,153.621,409.081,153.621,409.081z"/>
				<g>
					<path style="fill:#8CB1CC;" d="M99.611,414.319c-0.15,1.288,1.162,1.822,1.885,2.023c1.586,0.441,4.755,0.469,6.392,0.644
						c2.909,0.311,4.724,0.208,7.633,0.519c0.454,0.049,1.688,0.091,2.115-0.071c0.872-0.331,0.42-1.417,0.598-2.333
						c0.197-1.014,0.714-2.104,0.78-3.135c0.008-0.13,0.015-0.263-0.021-0.389c-0.07-0.242-0.285-0.41-0.492-0.552
						c-2.009-1.375-4.465-1.913-6.87-2.292c-1.874-0.296-3.776-0.513-5.666-0.346c-1.753,0.155-3.687,0.667-5.132,1.719
						c-0.529,0.385-1.487-0.281-1.545,0.351C99.206,411.363,99.722,413.366,99.611,414.319z"/>
					<path style="fill:#A3D2F4;" d="M95.955,316.514c0,0-0.116,48.254-0.86,49.518c-0.55,0.934-1.038,25.078-1.256,37.638
						c-0.073,4.236,3.115,7.81,7.331,8.232c5.279,0.528,12.294,1.159,17.353,1.351c2.889,0.109,5.38-2.003,5.757-4.869l9.25-70.366
						c0,0,6.22-1.053,6.902-1.053c0.584,0,7.947,55.444,10.033,71.25c0.314,2.377,2.362,4.129,4.759,4.073
						c7.314-0.171,14.063,2.24,21.713-3.045c8.06-5.568-10.547-107.033-10.547-107.033L95.955,316.514z"/>
					<path style="fill:#8CB1CC;" d="M97.798,320.864c0,0-1.503,18.772,0,19.903c1.504,1.131,12.635-3.845,16.456-6.107
						c3.82-2.262,5.856-25.176,5.856-25.176L97.798,320.864z"/>
					<path style="fill:#8CB1CC;" d="M154.262,305.258c0,0,4.976,29.855,7.238,31.664c2.262,1.809,6.107,1.809,6.107,1.809
						l-2.262-33.474H154.262z"/>
					<path style="fill:#FFFFFF;" d="M132.048,313.429c0,0-4.588,9.541-4.224,17.334c0,0,0.728,0.655,1.165,0
						c0.437-0.655,1.457-11.944,5.244-17.334C138.02,308.039,132.048,313.429,132.048,313.429z"/>
					<path style="fill:#FFFFFF;" d="M145.793,313.429c0,0,4.588,9.541,4.224,17.334c0,0-0.728,0.655-1.165,0
						c-0.437-0.655-1.457-11.944-5.244-17.334C139.82,308.039,145.793,313.429,145.793,313.429z"/>
					<path style="fill:#8CB1CC;" d="M135.491,314.23c0,0-1.331,19.373-0.894,20.102s5.972-0.437,6.263-1.165
						c0.291-0.728,0-21.631,0-21.631L135.491,314.23z"/>
				</g>
				<g>
					<g>
						<path style="fill:#222220;" d="M107.115,182.708c-0.528,0.084-0.958,0.451-1.394,0.76c-2.52,1.783-6.175,1.765-8.678-0.042
							c-2.503-1.807-3.669-5.271-2.77-8.224c-3.184,0.488-6.567-0.547-8.933-2.734c-2.365-2.187-3.662-5.479-3.424-8.692
							c-2.511-0.025-5.439-0.265-6.82-2.362c-0.726-1.102-0.838-2.485-0.928-3.802c-0.13-1.896-0.257-3.826,0.188-5.673
							c0.444-1.847,1.557-3.632,3.29-4.41c-1.337-4.358-2.689-8.851-2.28-13.391c0.409-4.54,3.015-9.194,7.344-10.621
							c0.567-0.187,1.195-0.343,1.566-0.812c0.282-0.357,0.358-0.832,0.403-1.285c0.334-3.334-0.453-6.786,0.475-10.006
							c0.878-3.047,3.349-5.586,6.37-6.549c3.022-0.962,6.506-0.319,8.984,1.659c1.378-2.624,3.572-5.004,6.439-5.755
							c2.868-0.751,6.379,0.628,7.289,3.449c2.072-3.248,5.555-5.909,9.405-5.791c3.851,0.117,7.525,3.934,6.508,7.65
							c3.038-2.011,6.653-3.675,10.226-2.963s6.568,4.776,4.975,8.054c3.261-0.813,6.633-1.631,9.948-1.083
							c3.315,0.548,6.586,2.835,7.195,6.14c0.584,3.165-1.321,6.2-3.137,8.857c3.704,1.511,6.611,4.847,7.603,8.723
							c0.992,3.876,0.044,8.198-2.479,11.302c-0.33,0.406-0.705,0.846-0.689,1.369c0.013,0.42,0.278,0.783,0.521,1.125
							c1.494,2.109,2.529,4.663,2.299,7.237c-0.23,2.575-1.952,5.106-4.455,5.751c0.957,0.785,1.573,2.061,1.33,3.275
							c-0.242,1.214-1.492,2.213-2.703,1.959c1.901,1.254,2.115,4.235,0.736,6.048c-1.379,1.812-3.908,2.48-6.15,2.086
							c0.512,2.34,0.709,5.407-1.425,6.497c-0.691,0.353-1.496,0.396-2.271,0.385c-2.629-0.036-5.217-0.605-7.807-1.056
							c-7.361-1.282-15.136-1.813-22.581-0.973c-2.258,0.255-3.849,0.954-5.682,2.267c-1.185,0.85-2.298,1.874-3.752,2.227
							C110.082,183.733,108.719,182.454,107.115,182.708z"/>
						<path style="fill:#D66156;" d="M161.314,152.84h-13.98l0.309,0.898c0,0,13.918,0.917,13.908,0.785
							C161.542,154.391,161.314,152.84,161.314,152.84z"/>
						<path style="fill:#684D3F;" d="M114.539,181.5c0,0,0.999,13.318,0,13.651c-0.999,0.333-13.152,8.657-13.152,8.657
							l22.807,7.658l22.474-3.829l0.666-11.154c0,0-10.821-4.162-11.487-4.328c-0.666-0.167-2.497-11.487-2.497-11.487
							L114.539,181.5z"/>
						<path style="fill:#735546;" d="M103.884,149.536c0,0,3.995,30.964,7.824,33.628c3.829,2.664,30.632,8.657,34.128,0.832
							c3.496-7.824,2.83-47.279,0.666-49.11c-2.164-1.831-31.63-1.332-31.63-1.332L103.884,149.536z"/>
						<path style="fill:#222220;" d="M155.329,140.094c-0.356-2.456-0.883-4.98-2.342-6.989c-2.301-3.17-6.391-4.401-10.219-5.23
							c-7.886-1.708-15.98-2.562-24.039-2.169c-2.916,0.142-5.895,0.466-8.524,1.738c-4.699,2.273-7.515,7.164-9.534,11.978
							c-2.41,5.745-4.059,12.458-1.351,18.069c1.428,2.959,4.002,5.442,4.515,8.687c0.19,1.201,0.081,2.451,0.43,3.616
							c0.348,1.165,1.378,2.279,2.586,2.137c1.409-0.165,2.072-1.791,2.442-3.16c0.172-0.636,0.344-1.3,0.218-1.947
							c-0.125-0.647-0.643-1.269-1.301-1.283c1.809-1.923,2.164-4.507,0.977-6.77c-1.129-2.153-0.995-2.895-0.76-5.341
							c1.215-0.197,1.975,1.197,3.222,1.086c1.194-0.106,2.027-1.389,2.438-2.39c0.59-1.441,0.93-2.985,0.998-4.542
							c2.202-0.309,4.571,0.92,6.593-0.003c1.256-0.573,2.049-1.883,2.348-3.231c0.299-1.347,0.177-2.748,0.054-4.123
							c1.564-0.608,3.24,0.839,4.907,0.651c1.69-0.191,2.706-1.916,3.454-3.443c1.912,1.308,4.301,1.902,6.602,1.642
							c-0.509,1.76,0.228,3.807,1.743,4.838s3.69,0.965,5.14-0.155c0.315,1.439,0.878,2.823,1.659,4.071
							c2.06,0.428,4.412,0.72,6.086-0.555C155.727,145.712,155.699,142.65,155.329,140.094z"/>
						<path style="fill:#222220;" d="M122.53,159.977c0,2.171-0.82,3.931-1.831,3.931c-1.011,0-1.831-1.76-1.831-3.931
							c0-2.171,0.82-3.931,1.831-3.931C121.71,156.046,122.53,157.806,122.53,159.977z"/>
						<path style="fill:#222220;" d="M144.094,159.977c0,2.171-0.82,3.931-1.831,3.931c-1.011,0-1.831-1.76-1.831-3.931
							c0-2.171,0.82-3.931,1.831-3.931C143.274,156.046,144.094,157.806,144.094,159.977z"/>
						<path style="fill:#FFFFFF;" d="M138.012,176.134c0,3.145-3.279,5.694-7.325,5.694c-4.045,0-7.325-2.549-7.325-5.694
							c0-3.145,3.28-0.798,7.325-0.798C134.732,175.336,138.012,172.99,138.012,176.134z"/>
						<g>
							<g>
								<path style="fill:#5B3F30;" d="M131.124,153.447c-0.14,3.225-0.423,7.224,1.433,10.067c0.844,1.292,2.562,1.967,2.75,3.655
									c0.234,2.098-2.377,2.555-3.901,2.698c-0.727,0.068-0.734,1.213,0,1.144c1.618-0.152,3.395-0.424,4.442-1.812
									c1.011-1.341,0.642-3.037-0.345-4.277c-0.584-0.734-1.435-1.201-1.958-1.986c-0.574-0.861-0.854-1.933-1.053-2.937
									c-0.427-2.152-0.318-4.374-0.224-6.553C132.3,152.711,131.156,152.712,131.124,153.447L131.124,153.447z"/>
							</g>
						</g>
						<path style="fill:none;stroke:#D66156;stroke-width:1.3728;stroke-miterlimit:10;" d="M161.577,155.348
							c0-7.866-6.377-8.479-14.243-8.479s-14.243,0.613-14.243,8.479c0,7.866,6.377,14.243,14.243,14.243
							S161.577,163.214,161.577,155.348z"/>
						<path style="fill:#D66156;" d="M84.625,159.51c0.703-0.229,1.09-0.981,1.002-1.715c-0.09-0.75-0.336-2.252,0.148-2.498
							c1.618-0.823,2.223-0.992,15.788-1.096l0.243-1.491c0,0-16.483,0.622-17.004,1.84
							C83.531,157.515,83.731,159.801,84.625,159.51z"/>
						<path style="fill:#735546;" d="M101.387,155.363c0,0-5.494-3.829-6.826,0c-1.332,3.829,3.698,14.84,9.323,9.489
							L101.387,155.363z"/>
						<path style="fill:none;stroke:#D66156;stroke-width:1.3728;stroke-miterlimit:10;" d="M129.997,155.348
							c0-7.866-6.377-8.479-14.243-8.479s-14.243,0.613-14.243,8.479c0,7.866,6.377,14.243,14.243,14.243
							S129.997,163.214,129.997,155.348z"/>
					</g>
					<path style="fill:#D66156;" d="M129.995,155.133c0,0,1.696-0.963,2.825,0v-1.446l-2.825,0.184V155.133z"/>
				</g>
				<path style="fill:#FFFFFF;" d="M106.92,200.053c0,0,5.8,9.184,21.751,6.721c15.951-2.462,16.857-10.985,16.857-10.985
					s21.36-9.073,36.561,15.676c15.201,24.749,13.06,79.773,13.06,79.773L94.838,276.923l-17.603-67.143
					C77.235,209.781,89.735,202.654,106.92,200.053z"/>
				<g>
					<path style="fill:#A3D2F4;" d="M132.107,219.603c24.516-2.711,32.402-15.059,34.94-22.651c-2.166-1.05-4.289-1.742-6.309-2.173
						c-2.985,6.391-10.456,15.418-29.15,18.944c-22.81,4.301-35.4-5.05-40.22-9.919c-2.194,0.725-4.182,1.465-5.929,2.167
						C92.069,212.279,106.903,222.39,132.107,219.603z"/>
					<path style="fill:#EF8A62;" d="M81.253,225.106c13.372,5.349,29.776,8.24,50.162,9.544
						c22.253,1.423,41.598-15.637,49.935-24.324c-1.302-2.003-2.643-3.778-4.01-5.333c-5.527,8.811-18.271,22.5-44.888,24.814
						c-23.594,2.052-41.832-4.784-52.768-10.685L81.253,225.106z"/>
					<polygon style="fill:#A3D2F4;" points="102.187,243.815 102.187,237.07 83.468,233.557 85.281,240.468 					"/>
					<polygon style="fill:#EF8A62;" points="95.096,251.771 95.096,245.718 86.657,245.718 88.244,251.771 					"/>
					<polygon style="fill:#A3D2F4;" points="95.096,257.132 89.835,257.838 90.929,262.014 95.096,260.937 					"/>
					<path style="fill:#EF8A62;" d="M95.096,265.476c-0.991,0.167-2.017,0.424-3.065,0.74l1.638,6.248
						c2.323-0.986,3.675-1.409,3.675-1.409S112.737,262.493,95.096,265.476z"/>
				</g>
				<polygon style="fill:#383838;" points="86.381,216.49 102.187,319.565 224.761,304.486 212.353,200.752 				"/>
				<polygon style="fill:#222220;" points="92.828,230.408 105.358,314.714 221.193,301.397 210.676,215.661 				"/>
				<g>
					<g>
						<path style="fill:#EF8A62;" d="M200.755,210.434c-0.078,1.864-1.652,3.312-3.516,3.234c-1.864-0.078-3.312-1.652-3.234-3.516
							c0.078-1.864,1.652-3.312,3.516-3.234C199.385,206.995,200.833,208.57,200.755,210.434z"/>
						<path style="fill:#F4CA60;" d="M209.339,209.579c-0.078,1.864-1.652,3.312-3.516,3.234c-1.864-0.078-3.312-1.652-3.234-3.516
							c0.078-1.864,1.652-3.312,3.516-3.234S209.417,207.715,209.339,209.579z"/>
						<path style="fill:#CCED98;" d="M191.856,211.211c-0.078,1.864-1.652,3.312-3.516,3.234c-1.864-0.078-3.312-1.652-3.234-3.516
							c0.078-1.864,1.652-3.312,3.516-3.234S191.934,209.347,191.856,211.211z"/>
					</g>
					<g>
						<g>
							
								<rect x="110.934" y="250.295" transform="matrix(0.9923 -0.1238 0.1238 0.9923 -30.2528 16.3001)" style="fill:#CCED98;" width="10.117" height="2.423"/>
							
								<rect x="122.463" y="249.07" transform="matrix(0.9923 -0.1238 0.1238 0.9923 -30.0233 17.5042)" style="fill:#F4CA60;" width="6.684" height="2.423"/>
							
								<rect x="115.624" y="252.831" transform="matrix(0.9923 -0.1238 0.1238 0.9923 -30.4732 17.8419)" style="fill:#FFFFFF;" width="25.315" height="2.423"/>
							
								<rect x="141.986" y="249.921" transform="matrix(0.9923 -0.1238 0.1238 0.9923 -29.9329 20.7063)" style="fill:#FFFFFF;" width="19.219" height="2.423"/>
							
								<rect x="162.284" y="248.394" transform="matrix(0.9923 -0.1238 0.1238 0.9923 -29.65 22.2111)" style="fill:#CCED98;" width="3.106" height="2.423"/>
							
								<rect x="116.199" y="258.044" transform="matrix(0.9923 -0.1238 0.1238 0.9923 -31.1874 16.746)" style="fill:#CCED98;" width="5.837" height="2.423"/>
							
								<rect x="114.073" y="262.379" transform="matrix(0.9923 -0.1238 0.1238 0.9923 -31.7406 16.5161)" style="fill:#EF8A62;" width="5.837" height="2.423"/>
							
								<rect x="115.298" y="272.198" transform="matrix(0.9923 -0.1238 0.1238 0.9923 -32.947 16.7434)" style="fill:#EF8A62;" width="5.837" height="2.423"/>
							
								<rect x="119.22" y="264.763" transform="matrix(0.9923 -0.1238 0.1238 0.9923 -31.9335 18.209)" style="fill:#FFFFFF;" width="22.569" height="2.423"/>
							
								<rect x="179.062" y="258.421" transform="matrix(0.9923 -0.1238 0.1238 0.9923 -30.7574 24.4534)" style="fill:#CCED98;" width="4.514" height="2.423"/>
							
								<rect x="142.202" y="261.037" transform="matrix(0.9923 -0.1238 0.1238 0.9923 -31.242 21.8778)" style="fill:#FFFFFF;" width="36.323" height="2.423"/>
							
								<rect x="120.607" y="275.883" transform="matrix(0.9923 -0.1238 0.1238 0.9923 -33.299 18.4658)" style="fill:#FFFFFF;" width="22.569" height="2.423"/>
							
								<rect x="180.45" y="269.542" transform="matrix(0.9923 -0.1238 0.1238 0.9923 -32.1232 24.7103)" style="fill:#F4CA60;" width="4.514" height="2.423"/>
							
								<rect x="143.589" y="272.157" transform="matrix(0.9923 -0.1238 0.1238 0.9923 -32.6085 22.1353)" style="fill:#FFFFFF;" width="36.323" height="2.423"/>
							
								<rect x="124.431" y="280.466" transform="matrix(0.9923 -0.1238 0.1238 0.9923 -33.8814 18.2964)" style="fill:#EF8A62;" width="11.596" height="2.423"/>
							
								<rect x="184.231" y="273.445" transform="matrix(0.9923 -0.1238 0.1238 0.9923 -32.5782 25.2092)" style="fill:#CCED98;" width="4.514" height="2.423"/>
							
								<rect x="174.807" y="278.996" transform="matrix(0.9923 -0.1238 0.1238 0.9923 -33.3319 24.0796)" style="fill:#CCED98;" width="4.514" height="2.423"/>
							
								<rect x="192.637" y="289.896" transform="matrix(0.9923 -0.1238 0.1238 0.9923 -34.5501 26.3762)" style="fill:#F4CA60;" width="4.514" height="2.423"/>
							
								<rect x="136.271" y="276.75" transform="matrix(0.9923 -0.1238 0.1238 0.9923 -33.1902 21.9539)" style="fill:#FFFFFF;" width="47.465" height="2.423"/>
							
								<rect x="130.958" y="284.026" transform="matrix(0.9923 -0.1238 0.1238 0.9923 -34.2699 19.1307)" style="fill:#EF8A62;" width="11.596" height="2.423"/>
							
								<rect x="142.861" y="281.32" transform="matrix(0.9923 -0.1238 0.1238 0.9923 -33.7684 21.7955)" style="fill:#FFFFFF;" width="31.156" height="2.423"/>
							
								<rect x="137.485" y="287.587" transform="matrix(0.9923 -0.1238 0.1238 0.9923 -34.6608 19.9666)" style="fill:#EF8A62;" width="11.596" height="2.423"/>
							
								<rect x="149.325" y="283.871" transform="matrix(0.9923 -0.1238 0.1238 0.9923 -33.9721 23.6257)" style="fill:#FFFFFF;" width="47.465" height="2.423"/>
							
								<rect x="144.012" y="291.147" transform="matrix(0.9923 -0.1238 0.1238 0.9923 -35.0515 20.8023)" style="fill:#EF8A62;" width="11.596" height="2.423"/>
							
								<rect x="155.852" y="287.432" transform="matrix(0.9923 -0.1238 0.1238 0.9923 -34.3627 24.4614)" style="fill:#FFFFFF;" width="47.465" height="2.423"/>
							
								<rect x="144.549" y="295.455" transform="matrix(0.9923 -0.1238 0.1238 0.9923 -35.5806 20.9018)" style="fill:#EF8A62;" width="11.596" height="2.423"/>
							
								<rect x="156.436" y="292.487" transform="matrix(0.9923 -0.1238 0.1238 0.9923 -35.0302 23.8248)" style="fill:#FFFFFF;" width="35.393" height="2.423"/>
							
								<rect x="123.341" y="255.119" transform="matrix(0.9923 -0.1238 0.1238 0.9923 -30.6461 19.6274)" style="fill:#FFFFFF;" width="38.437" height="2.423"/>
							
								<rect x="162.784" y="252.401" transform="matrix(0.9923 -0.1238 0.1238 0.9923 -30.1415 22.3031)" style="fill:#CCED98;" width="3.106" height="2.423"/>
						</g>
						<g>
							<path style="fill:#EF8A62;" d="M107.444,234.451c0,0,1.205,12.508,1.558,12.5c0.685-0.014,18.508-2.518,18.508-2.518
								l-1.91-12.655L107.444,234.451z"/>
							<polygon style="fill:#FFFFFF;" points="113.433,234.945 110.807,240.65 115.993,244.827 116.923,243.807 112.453,240.317 
								114.962,235.533 							"/>
							<polygon style="fill:#FFFFFF;" points="117.08,235.18 122.413,238.396 119.746,243.729 120.609,244.434 124.021,237.886 
								117.442,234.083 							"/>
						</g>
					</g>
				</g>
				<g>
					<path style="fill:#735546;" d="M99.069,322.898c0,0,5.513,5.517,7.492,5.333c1.979-0.184,2.807-2.115,2.807-2.115
						s3.979,0.827,4.886,0.276c0.907-0.552,0.581-3.31,0.928-3.494c0.347-0.184,1.458,0.13,3.113-0.33
						c1.655-0.46,1.223-3.276,1.499-3.368c0.276-0.092,4.449-0.449,4.346-2.178c-0.295-4.967-6.195-6.17-9.886-7.457
						C110.563,308.277,99.069,322.898,99.069,322.898z"/>
					<g>
						<path style="fill:#EF8A62;" d="M91.644,318.874c0,0,2.803,5.88,6.154,5.88c3.351,0,18.052-12.279,17.36-17.122
							c-0.692-4.842-7.091-7.264-7.091-7.264L91.644,318.874z"/>
						<g>
							<path style="fill:#FFFFFF;" d="M85.022,206.87c0,0-21.229,3.74-31.433,31.584c-10.204,27.844-10.377,42.89,4.324,59.666
								c14.7,16.776,15.738,16.084,22.656,23.52c6.918,7.437,20.926-6.918,23.348-10.377c2.421-3.459,14.009-10.997,9.166-20.026
								c-4.842-9.029-15.307-10.663-17.425-17.109C93.54,267.682,85.022,206.87,85.022,206.87z"/>
							<g>
								<path style="fill:#EF8A62;" d="M71.023,213.728c-1.439,1.068-2.899,2.367-4.377,3.792
									c6.202,4.147,13.336,7.436,21.358,9.988c-0.237-1.63-0.467-3.213-0.685-4.724C79.761,219.58,74.152,215.979,71.023,213.728z
									"/>
								<path style="fill:#A3D2F4;" d="M90.059,241.414c-0.343-2.282-0.683-4.565-1.015-6.811l-30.976-5.815
									c-1.011,1.76-1.973,3.669-2.878,5.722L90.059,241.414z"/>
								<path style="fill:#A3D2F4;" d="M106.561,283.986c-2.42-1.836-4.924-3.312-6.96-4.901
									c-13.024,9.15-25.75,24.686-30.701,31.056c2.585,2.65,4.376,4.309,6.111,5.941
									C84.867,304.747,99.592,290.571,106.561,283.986z"/>
								<path style="fill:#EF8A62;" d="M91.644,251.771c-0.308-1.973-0.62-4-0.933-6.053H51.068
									c-0.681,2.093-1.287,4.105-1.826,6.053H91.644z"/>
								<path style="fill:#A3D2F4;" d="M92.547,257.474l-45.774,6.144c-0.436,3.489-0.535,6.758-0.28,9.877l46.701-12.067
									C92.984,260.167,92.768,258.846,92.547,257.474z"/>
								<path style="fill:#EF8A62;" d="M93.926,265.72c-13.518,3.025-32.268,19.35-40.345,26.871
									c1.27,1.835,2.705,3.671,4.333,5.529c0.113,0.129,0.218,0.247,0.329,0.374c15.124-16.913,31.081-24.332,36.853-26.617
									C94.764,270.34,94.367,268.237,93.926,265.72z"/>
							</g>
						</g>
						<g>
							<path style="fill:#FFFFFF;" d="M85.022,206.87c0,0-21.229,3.74-31.433,31.584c-10.204,27.844-10.377,42.89,4.324,59.666
								c14.7,16.776,15.738,16.084,22.656,23.52c6.918,7.437,20.926-6.918,23.348-10.377c2.421-3.459,14.009-10.997,9.166-20.026
								c-4.842-9.029-15.307-10.663-17.425-17.109C93.54,267.682,85.022,206.87,85.022,206.87z"/>
							<g>
								<path style="fill:#EF8A62;" d="M71.023,213.728c-1.439,1.068-2.899,2.367-4.377,3.792
									c6.202,4.147,13.336,7.436,21.358,9.988c-0.237-1.63-0.467-3.213-0.685-4.724C79.761,219.58,74.152,215.979,71.023,213.728z
									"/>
								<path style="fill:#A3D2F4;" d="M90.059,241.414c-0.343-2.282-0.683-4.565-1.015-6.811l-30.976-5.815
									c-1.011,1.76-1.973,3.669-2.878,5.722L90.059,241.414z"/>
								<path style="fill:#A3D2F4;" d="M106.561,283.986c-2.42-1.836-4.924-3.312-6.96-4.901
									c-13.024,9.15-25.75,24.686-30.701,31.056c2.585,2.65,4.376,4.309,6.111,5.941
									C84.867,304.747,99.592,290.571,106.561,283.986z"/>
								<path style="fill:#EF8A62;" d="M91.644,251.771c-0.308-1.973-0.62-4-0.933-6.053H51.068
									c-0.681,2.093-1.287,4.105-1.826,6.053H91.644z"/>
								<path style="fill:#A3D2F4;" d="M92.547,257.474l-45.774,6.144c-0.436,3.489-0.535,6.758-0.28,9.877l46.701-12.067
									C92.984,260.167,92.768,258.846,92.547,257.474z"/>
								<path style="fill:#EF8A62;" d="M93.926,265.72c-13.518,3.025-32.268,19.35-40.345,26.871
									c1.27,1.835,2.705,3.671,4.333,5.529c0.113,0.129,0.218,0.247,0.329,0.374c15.124-16.913,31.081-24.332,36.853-26.617
									C94.764,270.34,94.367,268.237,93.926,265.72z"/>
							</g>
							<path style="fill:#EEEEEE;" d="M113.083,291.238c-4.843-9.029-15.307-10.663-17.425-17.109
								c-0.945-2.875-3.162-16.566-5.329-30.852c-1.461,3.592-3.8,6.759-6.978,9.051c-1.457,1.051-3.089,1.94-4.172,3.374
								c-1.149,1.522-1.541,3.5-1.52,5.407c0.059,5.445,3.234,10.471,7.331,14.057c4.098,3.586,9.079,5.972,13.951,8.404
								c3.067,1.532,6.373,3.378,7.548,6.599c1.103,3.021-0.011,6.373-1.341,9.3c-1.35,2.972-2.932,5.839-4.727,8.566
								c-2.131,3.239-4.662,6.571-4.699,10.448c-0.002,0.241,0.012,0.491,0.087,0.717c3.859-2.924,7.063-6.444,8.108-7.936
								C106.338,307.805,117.925,300.267,113.083,291.238z"/>
						</g>
					</g>
				</g>
			</g>
			<g>
				<path style="fill:#735546;" d="M216.977,230.408c0,0,3.667-3.743-0.218-6.691c-1.87-1.419-13.684,0.361-12.099,3.742
					C206.245,230.84,215.213,227.987,216.977,230.408z"/>
				<path style="fill:#735546;" d="M217.087,236.54c0,0,4.351-3.766-0.218-6.691c-2.2-1.408-16.157,0.441-14.306,3.814
					S215.018,234.13,217.087,236.54z"/>
				<path style="fill:#735546;" d="M217.606,243.146c0,0,3.667-3.743-0.218-6.691c-1.87-1.419-13.684,0.361-12.099,3.742
					C206.874,243.579,215.841,240.726,217.606,243.146z"/>
				<path style="fill:#735546;" d="M218.189,248.38c0,0,3.141-3.206-0.186-5.73c-1.602-1.215-11.72,0.309-10.363,3.205
					C208.998,248.751,216.678,246.308,218.189,248.38z"/>
			</g>
		</g>
	</g>
	<g>
		<ellipse style="opacity:0.2;fill:#383838;" cx="387.46" cy="446.196" rx="89.622" ry="7.448"/>
		<g>
			<path style="fill:#383838;" d="M400.915,78.701l-5.402,205.651c0,0-142.411,0.765-144.866,0
				c-2.455-0.765-4.632-205.651-4.632-205.651H400.915z"/>
			<polygon style="fill:#222220;" points="255.695,99.451 259.112,275.628 388.512,275.628 391.961,99.451 			"/>
			<g>
				<rect x="287.883" y="132.593" style="fill:#A3D2F4;" width="6.988" height="3.578"/>
				<rect x="269.839" y="132.596" style="fill:#FFFFFF;" width="6.988" height="3.578"/>
				<rect x="269.84" y="140.018" style="fill:#FFFFFF;" width="6.988" height="3.578"/>
				<rect x="269.842" y="147.439" style="fill:#FFFFFF;" width="6.988" height="3.578"/>
				<rect x="269.843" y="154.86" style="fill:#FFFFFF;" width="6.988" height="3.578"/>
				<rect x="269.845" y="162.281" style="fill:#FFFFFF;" width="6.988" height="3.578"/>
				<rect x="269.846" y="169.702" style="fill:#FFFFFF;" width="6.988" height="3.578"/>
				<rect x="269.848" y="177.123" style="fill:#FFFFFF;" width="6.988" height="3.578"/>
				<rect x="269.849" y="184.544" style="fill:#FFFFFF;" width="6.988" height="3.578"/>
				<rect x="269.851" y="191.965" style="fill:#FFFFFF;" width="6.988" height="3.578"/>
				<rect x="269.852" y="199.386" style="fill:#FFFFFF;" width="6.988" height="3.578"/>
				<rect x="269.854" y="206.807" style="fill:#FFFFFF;" width="6.988" height="3.578"/>
				<rect x="269.855" y="214.228" style="fill:#FFFFFF;" width="6.988" height="3.578"/>
				<rect x="269.857" y="221.65" style="fill:#FFFFFF;" width="6.988" height="3.578"/>
				<rect x="269.858" y="229.071" style="fill:#FFFFFF;" width="6.988" height="3.578"/>
				<rect x="269.86" y="236.492" style="fill:#FFFFFF;" width="6.988" height="3.578"/>
				<rect x="269.861" y="243.913" style="fill:#FFFFFF;" width="6.988" height="3.578"/>
				<rect x="296.906" y="132.591" style="fill:#EF8A62;" width="6.988" height="3.578"/>
				<rect x="344.051" y="132.581" style="fill:#A3D2F4;" width="10.587" height="3.578"/>
				<rect x="305.928" y="132.586" style="fill:#FFFFFF;" width="36.089" height="3.578"/>
				<rect x="287.885" y="140.014" style="fill:#A3D2F4;" width="6.988" height="3.578"/>
				<rect x="313.231" y="140.006" style="fill:#FFFFFF;" width="35.464" height="3.578"/>
				<rect x="283.818" y="146.641" style="fill:#EF8A62;" width="6.988" height="3.578"/>
				<rect x="290.495" y="153.265" style="fill:#EF8A62;" width="6.988" height="3.578"/>
				<rect x="298.944" y="153.262" style="fill:#FFFFFF;" width="21.904" height="3.578"/>
				<rect x="322.308" y="153.257" style="fill:#FFFFFF;" width="21.904" height="3.578"/>
				<rect x="345.672" y="153.254" style="fill:#F4CA60;" width="9.596" height="3.578"/>
				<rect x="293.991" y="159.891" style="fill:#EF8A62;" width="6.988" height="3.578"/>
				<rect x="302.439" y="159.888" style="fill:#A3D2F4;" width="19.572" height="3.578"/>
				<rect x="323.472" y="159.883" style="fill:#FFFFFF;" width="19.572" height="3.578"/>
				<rect x="293.995" y="180.298" style="fill:#EF8A62;" width="17.262" height="3.578"/>
				<rect x="312.665" y="180.294" style="fill:#FFFFFF;" width="17.262" height="3.578"/>
				<rect x="331.336" y="180.29" style="fill:#F4CA60;" width="17.262" height="3.578"/>
				<rect x="309.748" y="194.871" style="fill:#FFFFFF;" width="19.766" height="3.578"/>
				<rect x="309.749" y="200.968" style="fill:#EF8A62;" width="6.988" height="3.578"/>
				<rect x="318.526" y="200.965" style="fill:#A3D2F4;" width="24.527" height="3.578"/>
				<rect x="344.221" y="200.962" style="fill:#F4CA60;" width="5.137" height="3.578"/>
				<rect x="327.587" y="209.711" style="fill:#A3D2F4;" width="6.988" height="3.578"/>
				<rect x="334.577" y="217.793" style="fill:#EF8A62;" width="6.988" height="3.578"/>
				<rect x="343.299" y="217.792" style="fill:#A3D2F4;" width="6.988" height="3.578"/>
				<rect x="352.022" y="217.788" style="fill:#FFFFFF;" width="24.225" height="3.578"/>
				<rect x="334.578" y="225.877" style="fill:#A3D2F4;" width="6.988" height="3.578"/>
				<rect x="370.355" y="225.869" style="fill:#F4CA60;" width="11.734" height="3.578"/>
				<rect x="347.264" y="225.873" style="fill:#FFFFFF;" width="21.891" height="3.578"/>
			</g>
			<g>
				<g>
					<g>
						<g>
							<path style="fill:#F2CBB6;" d="M417.17,400.782c0,0,1.733,43.664,2.772,43.78c1.04,0.116,42.038,1.462,43.886,0.422
								c1.848-1.04-26.906-16.248-30.371-17.287l-0.347-32.575L417.17,400.782z"/>
							<path style="fill:#CCED98;" d="M428.837,437.284c0,0-0.017-12.225-10.462-10.733c0,0-0.875,18.241,0,18.819
								c0.875,0.578,46.032,2.501,47.187,0.884c1.155-1.617-14.559-11.492-18.473-12.089c-3.915-0.597-5.083,6.931-5.083,6.931
								S430.223,440.75,428.837,437.284z"/>
						</g>
						<g>
							<path style="fill:#F2CBB6;" d="M373.581,390.82c0,0-17.669,53.983-18.715,54.005c-1.046,0.022-38.653,0.343-40.401-0.858
								c-1.747-1.201,25.972-13.436,29.517-14.16l8.272-42.986L373.581,390.82z"/>
							<path style="fill:#CCED98;" d="M349.089,438.471c0,0,1.954-12.855,10.404-5.674c0,0-2.215,12.478-3.138,12.975
								s-42.724,1.02-43.729-0.694c-1.005-1.714,18.611-12.414,20.39-10.959c1.853,1.516,0.188,5.275,0.188,5.275
								S346.608,439.883,349.089,438.471z"/>
						</g>
					</g>
					<g>
						<g>
							<path style="fill:#EF8A62;" d="M382.967,162.464c-2.76,0-5.399-0.978-7.51-2.799c-2.332-2.011-3.741-4.809-3.968-7.88
								c-0.227-3.07,0.756-6.046,2.766-8.377c2.011-2.332,4.81-3.741,7.88-3.968c6.335-0.463,11.876,4.308,12.345,10.647
								c0.467,6.339-4.309,11.877-10.647,12.345C383.543,162.453,383.255,162.464,382.967,162.464z M382.991,141.172
								c-0.241,0-0.482,0.008-0.726,0.027c-2.601,0.192-4.971,1.385-6.675,3.36c-1.703,1.975-2.535,4.495-2.343,7.096
								c0.192,2.601,1.385,4.971,3.36,6.674c1.975,1.704,4.496,2.54,7.095,2.343c5.369-0.396,9.414-5.087,9.019-10.456
								C392.343,145.092,388.05,141.172,382.991,141.172z"/>
						</g>
						<path style="fill:#F2CBB6;" d="M383.674,133.656c0,0-8.325,38.139,1.463,46.429c9.789,8.289,3.595-48.933,3.595-48.933
							L383.674,133.656z"/>
						<g>
							<path style="fill:#F2CBB6;" d="M431.657,197.729c0,0,17.278,41.557,14.72,51.018c-2.559,9.461-20.78,13.832-20.78,13.832
								L431.657,197.729z"/>
							<path style="fill:#F2CBB6;" d="M383.435,218.175c0,0-52.841-10.242-56.532-19.492c-3.691-9.25-5.447-43.201-5.447-43.201
								l8.068,0.657c0,0,5.799,31.008,9.607,31.673c3.808,0.665,51.096,6.444,51.096,6.444L383.435,218.175z"/>
							<path style="fill:#F2CBB6;" d="M431.657,197.729c0,0-4.811,45.101-1.926,72.755c2.885,27.654-54.781-4.164-54.781-4.164
								s0.921-2.74,6.444-53.409C386.917,162.242,431.657,197.729,431.657,197.729z"/>
							<path style="fill:#EF8A62;" d="M431.095,268.713c0,0,15.809,135.513,10.286,139.234c-5.524,3.721-31.06,3.951-36.949,2.73
								l-3.699-89.002l-6.547-1.201l-14.458,88.3c0,0-34.93-3.226-39.553-4.128c-4.623-0.901,30.333-140.953,32.549-141.148
								C376.852,263.135,431.095,268.713,431.095,268.713z"/>
							<path style="fill:#BF7759;" d="M430.353,286.68c0,0,0.402,19.671-2.743,23.318c-3.145,3.647-10.212,5.482-10.212,5.482
								s-11.54-1.249-12.893-5.352c-1.354-4.103-0.789-24.896-0.789-24.896L430.353,286.68z"/>
							<path style="fill:#BF7759;" d="M371.184,280.586c0,0-4.835,19.072-2.595,23.335c2.24,4.263,8.71,7.647,8.71,7.647
								s11.524,1.39,13.769-2.301c2.245-3.691,6.391-24.074,6.391-24.074L371.184,280.586z"/>
							<g>
								<polygon style="fill:#BF7759;" points="429.123,270.093 428.65,278.654 425.825,278.479 426.14,269.929 								"/>
								<polygon style="fill:#BF7759;" points="418.854,269.392 418.193,278.121 415.115,278.041 415.518,268.947 								"/>
								<polygon style="fill:#BF7759;" points="408.012,269.072 406.969,276.953 403.72,276.655 404.492,268.379 								"/>
								<polygon style="fill:#BF7759;" points="401.359,268.61 400.599,276.271 397.36,275.819 398.318,267.99 								"/>
								<polygon style="fill:#BF7759;" points="389.6,267.482 388.512,275.628 385.051,275.576 386.111,267.048 								"/>
								<polygon style="fill:#BF7759;" points="379.249,266.71 377.738,274.325 374.392,273.752 375.732,265.894 								"/>
							</g>
							<path style="fill:#FFFFFF;" d="M362.252,188.57c0,0,25.092,3.219,26.056,3.524c0.964,0.305,36.605,6.133,36.605,6.133
								l4.416,0.458c4.574,0.474,8.358,3.77,9.455,8.237l3.97,16.172c0,0-6.425,5.291-13.701,5.693l2.174,29.428
								c0,0-51.698-3.148-55.617-4.364l3.351-35.345c0,0-5.564-1.397-21.453-4.93C357.509,213.575,355.696,199.234,362.252,188.57z"
								/>
							<path style="fill:#A3D2F4;" d="M387.574,136.923c0,0-9.319-0.716-10.28-2.329c-0.962-1.614,3.954-14.893,32.625-14.484
								c28.671,0.409,25.497,41.077,25.497,41.077l-3.089,61.278c0,0-29.465,6.831-54.518-7.042L387.574,136.923z"/>
						</g>
						<path style="fill:#EF8A62;" d="M374.441,144.59c0,0,31.396-1.683,34.054,0.677c2.658,2.36,3.058,6.787-0.13,6.146
							c-3.188-0.641,1.457-5.002-3.5-4.855c-4.956,0.147-31.567-0.041-31.567-0.041L374.441,144.59z"/>
						<path style="fill:#F2CBB6;" d="M388.804,147.671c0,0,2.165-4.096,7.26-2.582c5.095,1.514,2.461,19.468-7.432,15.085
							L388.804,147.671z"/>
					</g>
				</g>
				<path style="fill:#F2CBB6;" d="M321.802,161.137c0,0-5.699-12.311-4.149-14.249c0.24-0.3,1.945-0.15,2.315-0.572
					c0.442-0.503,0.832-0.991,1.16-1.128c1.175-0.492,2.133,0.428,2.133,0.428s1.067-1.57,1.842-1.496s1.601,0.634,1.601,0.634
					s-0.388-10.362,1.744-10.943s2.447,13.313,2.447,13.313s2.545,0.652,2.545,1.744c0,1.092,0.954,6.844-3.123,11.283
					C327.508,163.206,321.802,161.137,321.802,161.137z"/>
			</g>
			<g>
				<polyline style="fill:#FFFFFF;" points="273.486,109.936 270.502,123.836 272.977,123.836 275.815,109.936 				"/>
				<polyline style="fill:#FFFFFF;" points="280.108,109.936 277.125,123.836 279.599,123.836 282.437,109.936 				"/>
				<rect x="285.202" y="111.537" style="fill:#FFFFFF;" width="2.729" height="2.729"/>
				<rect x="285.202" y="119.688" style="fill:#FFFFFF;" width="2.729" height="2.729"/>
			</g>
			<path style="fill:#F4CA60;" d="M392.749,90.142c0-2.273-1.843-4.116-4.116-4.116c-2.273,0-4.116,1.843-4.116,4.116
				c0,2.273,1.843,4.116,4.116,4.116C390.906,94.258,392.749,92.415,392.749,90.142z"/>
			<path style="fill:#EF8A62;" d="M380.31,90.142c0-2.273-1.843-4.116-4.116-4.116c-2.273,0-4.116,1.843-4.116,4.116
				c0,2.273,1.843,4.116,4.116,4.116C378.467,94.258,380.31,92.415,380.31,90.142z"/>
			<path style="fill:#CCED98;" d="M367.872,90.142c0-2.273-1.843-4.116-4.116-4.116c-2.273,0-4.116,1.843-4.116,4.116
				c0,2.273,1.843,4.116,4.116,4.116C366.029,94.258,367.872,92.415,367.872,90.142z"/>
		</g>
	</g>
	<g>
		<path style="fill:#C8A34C;" d="M571.415,237.575c0,0-45.737-3.969-47.438-9.638c-1.701-5.669-4.68-4.9-11.767-44.718l11.339-2.371
			c0,0,13.567,30.02,15.076,30.618c1.51,0.598,35.631-15.54,44.224-14.983C591.441,197.039,577.936,238.214,571.415,237.575z"/>
		<g>
			<ellipse style="opacity:0.2;fill:#383838;" cx="580.614" cy="447.111" rx="89.622" ry="7.448"/>
			<g>
				<g>
					<g>
						<path style="fill:#A3D2F4;" d="M631.382,430.84c0,0,4.099,15.988,3.074,16.603c-1.025,0.615-49.398,1.23-51.242,0
							s-0.245-9.019,25.703-16.603C608.918,430.84,624.208,425.921,631.382,430.84z"/>
						<g>
							<defs>
								<path id="SVGID_00000110466023355934283490000000687692336157949059_" d="M631.382,430.84c0,0,4.099,15.988,3.074,16.603
									c-1.025,0.615-49.398,1.23-51.242,0s-0.245-9.019,25.703-16.603C608.918,430.84,624.208,425.921,631.382,430.84z"/>
							</defs>
							<clipPath id="SVGID_00000072245748848348169000000015194564976356021163_">
								<use xlink:href="#SVGID_00000110466023355934283490000000687692336157949059_"  style="overflow:visible;"/>
							</clipPath>
							<path style="clip-path:url(#SVGID_00000072245748848348169000000015194564976356021163_);fill:#FFFFFF;" d="M590.242,436.128
								c0.215,0,8.809-0.072,12.175,6.302h22.487c0,0,4.01-8.164,12.604-4.798c8.594,3.366,3.724,15.97,3.724,15.97l-62.234-4.225
								l4.225-12.819L590.242,436.128z"/>
						</g>
					</g>
					<path style="fill:#E29D7F;" d="M628.823,414.53l1.078,17.197c0,0-6.134,3.544-14.129-0.155l-0.672-17.041H628.823z"/>
				</g>
				<g>
					<g>
						<path style="fill:#A3D2F4;" d="M573.956,430.84c0,0,4.099,15.988,3.075,16.603c-1.025,0.615-49.398,1.23-51.242,0
							c-1.845-1.23-0.245-9.019,25.703-16.603C551.492,430.84,566.782,425.921,573.956,430.84z"/>
						<g>
							<defs>
								<path id="SVGID_00000021825917365684312380000004057128709627465902_" d="M573.956,430.84c0,0,4.099,15.988,3.075,16.603
									c-1.025,0.615-49.398,1.23-51.242,0c-1.845-1.23-0.245-9.019,25.703-16.603C551.492,430.84,566.782,425.921,573.956,430.84z
									"/>
							</defs>
							<clipPath id="SVGID_00000114058432953734946210000011559600329313242006_">
								<use xlink:href="#SVGID_00000021825917365684312380000004057128709627465902_"  style="overflow:visible;"/>
							</clipPath>
							<path style="clip-path:url(#SVGID_00000114058432953734946210000011559600329313242006_);fill:#FFFFFF;" d="M532.816,436.128
								c0.215,0,8.809-0.072,12.175,6.302h22.487c0,0,4.01-8.164,12.604-4.798c8.594,3.366,3.724,15.97,3.724,15.97l-62.234-4.225
								l4.225-12.819L532.816,436.128z"/>
						</g>
					</g>
					<path style="fill:#E29D7F;" d="M572.778,415.68l-1.363,15.603c0,0-7.574,2.858-13.323-0.473l1.12-17.208L572.778,415.68z"/>
				</g>
				<g>
					<path style="fill:#D9D9D9;" d="M576.562,421.081c0,0-0.396,7.401-2.339,8.063c-1.944,0.662-3.496,0.056-5.964,0.095
						c-2.468,0.04-7.303-0.063-9.47-0.48c-2.166-0.416-3.206-1.121-2.086-8.263C557.823,413.355,576.562,421.081,576.562,421.081z"
						/>
					<g>
						<path style="fill:#D9D9D9;" d="M630.572,428.319c0.15,1.288-1.162,1.822-1.885,2.023c-1.586,0.441-4.755,0.469-6.392,0.644
							c-2.909,0.311-3.516-0.764-6.426-0.453c-0.454,0.048-3.071,0.084-3.498-0.078c-0.872-0.331-0.245-0.439-0.422-1.355
							c-0.197-1.014-0.714-2.104-0.78-3.135c-0.008-0.13-0.015-0.263,0.021-0.389c0.07-0.242,0.285-0.41,0.492-0.552
							c2.009-1.375,4.465-1.913,6.87-2.292c1.874-0.296,3.776-0.513,5.666-0.346c1.753,0.155,3.686,0.667,5.132,1.719
							c0.529,0.385,1.487-0.281,1.545,0.351C630.977,425.363,630.461,427.366,630.572,428.319z"/>
						<path style="fill:#FFFFFF;" d="M634.228,306.513c0,0,0.116,58.254,0.86,59.518c0.55,0.934,1.038,39.078,1.256,51.638
							c0.073,4.236-3.115,7.81-7.331,8.232c-5.279,0.528-12.294,1.159-17.353,1.351c-2.889,0.109-5.38-2.003-5.757-4.869
							l-9.25-94.366c0,0-6.22-1.053-6.902-1.053c-0.584,0-7.947,77.444-10.033,93.25c-0.314,2.377-2.362,4.129-4.759,4.073
							c-7.314-0.171-14.063,2.24-21.713-3.045c-8.06-5.568,10.547-129.033,10.547-129.033L634.228,306.513z"/>
						<path style="fill:#D9D9D9;" d="M632.385,310.864c0,0,1.503,18.772,0,19.903c-1.504,1.131-12.635-3.845-16.456-6.107
							c-3.82-2.262-5.856-25.176-5.856-25.176L632.385,310.864z"/>
						<path style="fill:#D9D9D9;" d="M575.922,295.258c0,0-4.976,29.855-7.237,31.664c-2.262,1.809-8.541,1.485-8.541,1.485
							l4.696-33.149H575.922z"/>
						<path style="fill:#D9D9D9;" d="M594.692,304.23c0,0,1.331,19.373,0.894,20.101c-0.437,0.728-5.972-0.437-6.264-1.165
							c-0.291-0.728,0-21.631,0-21.631L594.692,304.23z"/>
					</g>
					<g>
						<g>
							<path style="fill:#C48B71;" d="M615.644,181.5c0,0-0.999,13.318,0,13.651c0.999,0.333,13.152,8.657,13.152,8.657
								l-22.807,7.658l-22.474-3.829l-0.666-11.154c0,0,10.821-4.162,11.487-4.328c0.666-0.167,2.497-11.487,2.497-11.487
								L615.644,181.5z"/>
							<path style="fill:#E29D7F;" d="M626.299,149.536c0,0-3.995,30.964-7.824,33.628c-3.829,2.664-30.632,8.657-34.128,0.832
								c-3.496-7.824-2.83-47.279-0.666-49.11c2.164-1.831,31.63-1.332,31.63-1.332L626.299,149.536z"/>
							<path style="fill:#32241B;" d="M607.654,159.977c0,2.171,0.82,3.931,1.831,3.931c1.011,0,1.831-1.76,1.831-3.931
								c0-2.171-0.82-3.931-1.831-3.931C608.474,156.046,607.654,157.806,607.654,159.977z"/>
							<path style="fill:#32241B;" d="M587.252,159.977c0,2.171,0.82,3.931,1.831,3.931c1.011,0,1.831-1.76,1.831-3.931
								c0-2.171-0.82-3.931-1.831-3.931C588.072,156.046,587.252,157.806,587.252,159.977z"/>
							<path style="fill:#FFFFFF;" d="M596.515,180.526c1.74,2.62,5.882,2.929,9.252,0.69c3.37-2.238,4.691-6.176,2.951-8.796
								c-1.74-2.62-3.174,1.149-6.543,3.387C598.805,178.046,594.775,177.906,596.515,180.526z"/>
							<g style="opacity:0.5;">
								<path style="fill:#E29D7F;" d="M597.915,153.447c0.092,2.127,0.199,4.295-0.193,6.401c-0.188,1.009-0.458,2.09-1.006,2.969
									c-0.527,0.847-1.42,1.334-2.036,2.105c-0.955,1.195-1.353,2.855-0.416,4.18c1.034,1.464,2.851,1.752,4.512,1.909
									c0.733,0.069,0.728-1.076,0-1.144c-1.496-0.141-3.947-0.54-3.919-2.53c0.025-1.761,1.92-2.523,2.768-3.823
									c1.857-2.843,1.573-6.841,1.433-10.067C599.027,152.714,597.883,152.71,597.915,153.447L597.915,153.447z"/>
							</g>
							<path style="fill:#C48B71;" d="M628.796,155.363c0,0,5.494-3.829,6.826,0c1.332,3.829-3.698,14.84-9.323,9.489
								L628.796,155.363z"/>
						</g>
					</g>
				</g>
			</g>
		</g>
		<path style="fill:#F4CA60;" d="M569.249,227.937c0,0-16.998,78.145-13.002,79.985c3.997,1.84,77.424,5.419,79.59,3.122
			c2.166-2.297,14.542-105.543-10.013-109.585c0,0-27.716,9.087-42.976-4.976C582.849,196.482,571.977,205.425,569.249,227.937z"/>
		<path style="fill:#735546;" d="M623.012,169.551c0,0-0.965-16.831-1.93-20.828c-0.965-3.998-9.236-5.101-8.133-12.269
			c0,0-6.151,7.995-14.173,4.549c-8.021-3.446-2.246-5.101-2.246-5.101s-8.338,8.547-14.639,6.203
			c-6.301-2.344-1.751-6.203-1.751-6.203s-11.717-3.584-7.995-11.304s8.409-3.86,8.409-3.86s-4.249-15.439,6.698-16.404
			c10.947-0.965,12.245,11.855,12.245,11.855s5.362-7.582,11.82-3.308c6.457,4.273,5.217,8.96,5.217,8.96
			s17.216-0.689,14.535,12.958c0,0,11.794-1.241-0.888,22.194C630.18,156.994,630.18,172.321,623.012,169.551z"/>
		<polygon style="fill:#383838;" points="497.507,173.488 497.507,171.014 546.188,183.456 589.083,203.272 589.083,206.03 
			541.107,208.571 		"/>
		<polygon style="fill:#222220;" points="589.083,203.272 541.611,205.484 497.507,171.014 545.73,172.124 		"/>
		<g>
			<polygon style="fill:#383838;" points="537.966,173.426 574.301,201.596 581.46,201.596 543.932,173.426 			"/>
			<polygon style="fill:#383838;" points="535.998,173.426 536.615,173.932 570.363,201.596 562.377,201.643 530.628,174.829 			"/>
			<polygon style="fill:#383838;" points="529.285,176.14 558.997,201.643 551.211,201.596 524.184,177.12 			"/>
			<polygon style="fill:#383838;" points="533.581,188.891 546.021,202.064 538.861,202.064 527.675,190.459 			"/>
		</g>
		<polygon style="fill:#383838;" points="541.107,208.571 533.832,144.333 488.576,115.004 497.507,173.488 		"/>
		<path style="fill:#E29D7F;" d="M545.73,208.326c0,0,4.329,5.318,15.194,9.913c10.864,4.595,10.491-1.198,10.491-1.198v-3.089
			c0,0,1.721-11.914-2.165-14.177c-3.887-2.264-9.192,0.1-1.997,4.539c0,0-0.945,4.543-2.646,4.256
			c-1.701-0.287-7.162-0.865-7.162-0.865"/>
		<path style="fill:#E8BA52;" d="M560.923,218.239c0,0,10.326,35.365,26.328,44.382c24.064,13.56,58.133-19.627,52.555-43.946
			c-5.578-24.318-16.866-17.696-16.353-16.545c0,0-21.976,38.186-25.345,37.294c0,0-24.734-23.793-26.694-25.472L560.923,218.239z"
			/>
	</g>
	<g>
		<path style="fill:#FFFFFF;" d="M640.414,76.906c0,0-4.749,38.986,0.457,51.146s63.864,6.557,71.733,3.1
			c7.869-3.457,4.581-57.786,1.005-60.647C710.031,67.644,647.984,61.526,640.414,76.906z"/>
		<path style="fill:#FFFFFF;" d="M659.669,125.906c-3.219,5.723-18.798,25.569-18.798,25.569l45.265-21.992L659.669,125.906z"/>
	</g>
	<g>
		<polygon style="fill:#A3D2F4;" points="670.267,85.769 659.778,100.079 671.777,115.569 674.927,113.272 664.521,100.088 
			674.168,88.26 		"/>
		<polygon style="fill:#A3D2F4;" points="683.728,88.252 696.678,99.163 686.286,113.422 688.277,115.86 701.416,98.659 
			685.35,85.416 		"/>
	</g>
</g>
</svg>
